# xmcd CD database file
# Copyright (C) 1993-2000  Ti Kan
#
# Track frame offsets:
#	182
#	13935
#	25640
#	38732
#	53705
#	66582
#	78207
#	91795
#	103390
#	114952
#	126562
#	138522
#	149177
#	163642
#
# Disc length: 2351 seconds
#
# Revision: 1
# Processed by: cddbd v1.4PL0 Copyright (c) Steve Scherf et al.
# Submitted via: xmcd 2.6 PL0
#
DISCID=c6092d0e
DTITLE=Tiny Grimes And His Rocking Highlanders
DYEAR=1900
DGENRE=
TTITLE0=Tiny's Jump
TTITLE1=Hey Now
TTITLE2=Why Did You Waste My Time?
TTITLE3=St. Louis Blues
TTITLE4=Drinking Beer
TTITLE5=My Baby's Left Me
TTITLE6=Frankie and Johnny Boogie-1
TTITLE7=Hey Mr. J B
TTITLE8=Battle Of The Mass
TTITLE9=I'm In Love With You Baby
TTITLE10=My Baby's Cool
TTITLE11=Hawaiian Boogie
TTITLE12=No Hug No Kiss
TTITLE13=Frankie and Johnny Boogie-2
EXTD=Featuring Screamin' Jay Hawkins
EXTT0=
EXTT1=
EXTT2=
EXTT3=
EXTT4=
EXTT5=
EXTT6=
EXTT7=
EXTT8=
EXTT9=
EXTT10=
EXTT11=
EXTT12=
EXTT13=
PLAYORDER=
